<svg width="44" height="46" viewBox="0 0 44 46" fill="none" xmlns="http://www.w3.org/2000/svg">
<path d="M1 40.3956V18.0597C0.999885 17.2363 1.18959 16.4256 1.5523 15.6996C1.915 14.9736 2.43948 14.3546 3.0792 13.8976L19.4325 2.2269C20.2003 1.67844 21.1026 1.38574 22.0256 1.38574C22.9487 1.38574 23.851 1.67844 24.6188 2.2269L40.9721 13.8976C41.6118 14.3546 42.1363 14.9736 42.499 15.6996C42.8617 16.4256 43.0514 17.2363 43.0513 18.0597V40.3956M1 40.3956C1 41.7224 1.49227 42.9948 2.3685 43.9329C3.24474 44.8711 4.43318 45.3981 5.67236 45.3981H38.3789C39.6181 45.3981 40.8065 44.8711 41.6828 43.9329C42.559 42.9948 43.0513 41.7224 43.0513 40.3956M1 40.3956L16.7692 29.1401ZM43.0513 40.3956L27.2821 29.1401ZM1 17.8846L16.7692 29.1401ZM43.0513 17.8846L27.2821 29.1401ZM27.2821 29.1401L24.6188 31.0411C23.851 31.5895 22.9487 31.8822 22.0256 31.8822C21.1026 31.8822 20.2003 31.5895 19.4325 31.0411L16.7692 29.1401" fill="#0D0D0D"/>
<path d="M1 40.3956V18.0597C0.999885 17.2363 1.18959 16.4256 1.5523 15.6996C1.915 14.9736 2.43948 14.3546 3.0792 13.8976L19.4325 2.2269C20.2003 1.67844 21.1026 1.38574 22.0256 1.38574C22.9487 1.38574 23.851 1.67844 24.6188 2.2269L40.9721 13.8976C41.6118 14.3546 42.1363 14.9736 42.499 15.6996C42.8617 16.4256 43.0514 17.2363 43.0513 18.0597V40.3956M1 40.3956C1 41.7224 1.49227 42.9948 2.3685 43.9329C3.24474 44.8711 4.43318 45.3981 5.67236 45.3981H38.3789C39.6181 45.3981 40.8065 44.8711 41.6828 43.9329C42.559 42.9948 43.0513 41.7224 43.0513 40.3956M1 40.3956L16.7692 29.1401M43.0513 40.3956L27.2821 29.1401M16.7692 29.1401L1 17.8846M16.7692 29.1401L19.4325 31.0411C20.2003 31.5895 21.1026 31.8822 22.0256 31.8822C22.9487 31.8822 23.851 31.5895 24.6188 31.0411L27.2821 29.1401M27.2821 29.1401L43.0513 17.8846" stroke="white" stroke-linecap="round" stroke-linejoin="round"/>
</svg>
